<?xml version="1.0" encoding="UTF-8"?>
<!DOCTYPE svg PUBLIC "-//W3C//DTD SVG 1.1//EN" "http://www.w3.org/Graphics/SVG/1.1/DTD/svg11.dtd">
<!-- Creator: CorelDRAW (Evaluation Version) -->
<svg xmlns="http://www.w3.org/2000/svg" xml:space="preserve" width="1666px" height="428px" version="1.1" style="shape-rendering:geometricPrecision; text-rendering:geometricPrecision; image-rendering:optimizeQuality; fill-rule:evenodd; clip-rule:evenodd"
viewBox="0 0 1666.25 427.77"
 xmlns:xlink="http://www.w3.org/1999/xlink">
 <defs>
  <style type="text/css">
   <![CDATA[
    .fil1 {fill:#DCAE56;fill-rule:nonzero}
    .fil0 {fill:#3F3E41;fill-rule:nonzero}
   ]]>
  </style>
 </defs>
 <g id="Layer_x0020_1">
  <metadata id="CorelCorpID_0Corel-Layer"/>
  <path class="fil0" d="M276.2 390.6c0,24.77 -12.53,37.13 -37.62,37.13l-125.94 0c-71.72,0 -109.26,-34.91 -112.64,-104.8l0 -189.57c1.88,-21.17 14.33,-31.77 37.38,-31.77l199.19 0c26.25,-0.15 39.39,12.29 39.39,37.4 -0.18,24.4 -12.97,36.85 -38.38,37.37l-162.57 -0.24 0 50.16 112.65 -0.5c25.41,0.33 38.13,13.3 38.13,38.88 0.15,24.42 -12.3,36.64 -37.39,36.64l-113.39 0.23 0 12.55c0,25.59 12.79,38.38 38.37,38.38l125.95 0.26c24.59,0 36.87,12.62 36.87,37.88z"/>
  <path class="fil0" d="M569.98 138.99l-101.6 263.4c-6.03,15.21 -13.92,23.29 -23.71,24.2 -9.78,0.93 -18.9,0.67 -27.34,-0.74 -8.45,-1.43 -16.18,-9.24 -23.2,-23.46l-100.61 -263.91c0,-25.09 12.55,-37.65 37.64,-37.65 15.88,0 26.12,4.41 30.72,13.19 4.6,8.77 27.98,75.8 70.12,201.06 41.82,-125.26 65.3,-192.14 70.5,-200.68 5.18,-8.54 15.38,-13.06 30.6,-13.57 24.59,0 36.88,12.72 36.88,38.16z"/>
  <path class="fil0" d="M703.76 177.4c-24.74,0 -37.13,12.46 -37.13,37.37l0 99.09c0,25.79 12.39,38.64 37.13,38.64l50.68 0c25.42,0 38.14,-12.85 38.14,-38.64l0 -100.08c0,-24.25 -12.72,-36.38 -38.14,-36.38l-50.68 0zm0.76 -75.76l49.92 0c75.59,0 113.39,37.7 113.39,113.13l0 97.6c0,76.94 -37.62,115.4 -112.88,115.4l-51.44 0c-74.76,0 -112.14,-37.63 -112.14,-112.89l0 -99.85c0,-75.59 37.72,-113.39 113.15,-113.39z"/>
  <path class="fil0" d="M949.76 0c25.42,0 38.14,12.79 38.14,38.39l0 313.06c25.59,0 38.12,12.23 37.63,36.64 0,25.25 -12.55,38.13 -37.63,38.62l-37.64 0.52c-25.08,-0.34 -37.63,-12.96 -37.63,-37.9l0 -350.94c0,-25.6 12.37,-38.39 37.13,-38.39z"/>
  <path class="fil0" d="M1349.55 138.99l0 251.1c0,24.76 -12.54,37.14 -37.65,37.14l-125.92 -0.26c-75.25,0 -112.9,-38.46 -112.9,-115.4l0 -173.09c0,-25.09 12.54,-37.65 37.65,-37.65 25.07,0 37.63,12.72 37.63,38.16l0 174.09c0,25.75 12.78,38.63 38.35,38.63l87.58 0 0 -212.72c0,-25.44 12.79,-38.16 38.36,-38.16 24.61,0 36.9,12.72 36.9,38.16z"/>
  <path class="fil1" d="M1406.95 112.13c19.06,-16.72 37.12,-15.47 54.18,3.76l193.17 245.61c16.73,19.07 15.89,37.19 -2.5,54.43 -19.09,16.39 -36.89,15.22 -53.43,-3.5l-193.67 -246.86c-16.9,-19.24 -16.16,-37.05 2.25,-53.44zm247.1 53.44l-193.92 246.86c-16.39,18.72 -34.12,19.89 -53.18,3.5 -18.41,-17.24 -19.24,-35.36 -2.52,-54.43l193.18 -245.61c17.05,-19.23 35.04,-20.48 53.93,-3.76 18.56,16.39 19.4,34.2 2.51,53.44z"/>
 </g>
</svg>
