<svg xmlns="http://www.w3.org/2000/svg" xmlns:xlink="http://www.w3.org/1999/xlink" width="1366" height="839" viewBox="0 0 1366 839">
  <defs>
    <clipPath id="clip-footer2">
      <rect width="1366" height="839"/>
    </clipPath>
  </defs>
  <g id="footer2" clip-path="url(#clip-footer2)">
    <g id="Grupo_43" data-name="Grupo 43" transform="translate(0 -6997.807)">
      <path id="Caminho_1" data-name="Caminho 1" d="M1112.629-381.245s-82.343-63.75-181.374,0-178.255,0-178.255,0" transform="translate(-70.511 7523.144)" fill="none" stroke="#007ed3" stroke-width="48"/>
      <path id="Caminho_14" data-name="Caminho 14" d="M1112.629-381.245s-82.343-63.75-181.374,0-178.255,0-178.255,0" transform="translate(287.554 7521.385)" fill="none" stroke="#007ed3" stroke-width="48"/>
      <path id="Caminho_3" data-name="Caminho 3" d="M1112.629-381.245s-82.343-63.75-181.374,0-178.255,0-178.255,0" transform="translate(-788 7524.911)" fill="none" stroke="#007ed3" stroke-width="48"/>
      <path id="Caminho_2" data-name="Caminho 2" d="M1112.629-381.245s-82.343-63.75-181.374,0-178.255,0-178.255,0" transform="translate(-429.55 7523.733)" fill="none" stroke="#007ed3" stroke-width="48"/>
      <path id="Caminho_1-2" data-name="Caminho 1" d="M1112.629-381.245s-82.343-63.75-181.374,0-178.255,0-178.255,0" transform="translate(-70.102 7477.144)" fill="none" stroke="#007ed3" stroke-width="48"/>
      <path id="Caminho_14-2" data-name="Caminho 14" d="M1112.629-381.245s-82.343-63.75-181.374,0-178.255,0-178.255,0" transform="translate(287.962 7475.385)" fill="none" stroke="#007ed3" stroke-width="48"/>
      <path id="Caminho_3-2" data-name="Caminho 3" d="M1112.629-381.245s-82.343-63.75-181.374,0-178.255,0-178.255,0" transform="translate(-787.591 7478.911)" fill="none" stroke="#007ed3" stroke-width="48"/>
      <path id="Caminho_2-2" data-name="Caminho 2" d="M1112.629-381.245s-82.343-63.75-181.374,0-178.255,0-178.255,0" transform="translate(-429.141 7477.733)" fill="none" stroke="#007ed3" stroke-width="48"/>
      <rect id="Retângulo_20" data-name="Retângulo 20" width="1366" height="711" transform="translate(0 7126)" fill="#007ed3"/>
    </g>
  </g>
</svg>
