<?xml version="1.0" encoding="UTF-8"?>
<svg width="1200px" height="840px" viewBox="0 0 1200 840" version="1.1" xmlns="http://www.w3.org/2000/svg" xmlns:xlink="http://www.w3.org/1999/xlink">
    <!-- Generator: Sketch 52.3 (67297) - http://www.bohemiancoding.com/sketch -->
    <title>Artboard</title>
    <desc>Created with Sketch.</desc>
    <g id="Artboard" stroke="none" stroke-width="1" fill="none" fill-rule="evenodd">
        <g id="vinta-hexagon-logo" transform="translate(23.000000, 29.000000)" fill="#0052FF">
            <path d="M1150.82333,296.518536 C1153.87833,300.354679 1154.91333,307.229935 1153.11833,311.797105 L1016.48637,659.48707 C1014.69137,664.054241 1009.25137,668.381402 1004.40137,669.105429 L249.889566,781.876634 C245.037567,782.601661 238.565568,780.055566 235.509569,776.219423 L60.6286144,556.720238 C57.5716152,552.884095 52.5696164,546.604861 49.5126172,542.768718 L3.17762917,484.609549 C0.119629961,480.773406 -0.912369773,473.89815 0.881629764,469.33098 L137.102595,122.678053 C138.897594,118.110883 144.333593,113.783722 149.186592,113.055695 L904.806397,0.12448353 C909.659396,-0.604543655 916.129394,1.9445514 919.185393,5.78069444 L1092.39335,223.178801 C1095.45235,227.015944 1100.45435,233.295178 1103.50935,237.131321 L1150.82333,296.518536 Z M993.311374,487.757667 C996.940373,487.757667 998.629373,485.093567 997.101373,481.804445 L988.731375,459.883627 C987.440375,456.488501 983.436376,453.742398 979.808377,453.742398 L946.982386,453.742398 L957.848383,481.751443 C959.324383,485.073567 963.450382,487.757667 967.094381,487.757667 L993.311374,487.757667 Z M900.789398,334.615956 L934.855389,422.832246 L967.332381,422.832246 C970.96638,422.832246 972.833379,420.079143 971.50038,416.704017 L925.438391,299.58065 C924.137392,296.188523 920.130393,293.436421 916.488394,293.429421 L884.516402,293.429421 C880.894403,293.436421 876.876404,296.188523 875.573404,299.58065 L827.469417,422.832246 L859.813408,422.832246 C863.442407,422.832246 867.416406,420.066143 868.681406,416.665016 L900.789398,334.615956 Z M843.478413,481.751443 L854.34141,453.742398 L821.519418,453.742398 C817.887419,453.742398 813.89342,456.488501 812.599421,459.883627 L804.235423,481.804445 C802.694423,485.093567 804.383423,487.757667 808.019422,487.757667 L834.235415,487.757667 C837.871414,487.757667 842.006413,485.073567 843.478413,481.751443 Z M772.799431,416.260001 L772.799431,327.384687 L814.91042,327.384687 C818.542419,327.384687 821.482418,324.441577 821.482418,320.809441 L821.482418,299.938663 C821.482418,296.313528 818.542419,293.366418 814.91042,293.366418 L692.019452,293.373418 C688.390453,293.373418 685.446453,296.313528 685.446453,299.945664 L685.446453,320.809441 C685.446453,324.441577 688.390453,327.384687 692.019452,327.384687 L734.133441,327.384687 L734.133441,422.832246 L766.230432,422.832246 C769.853432,422.832246 772.799431,419.888136 772.799431,416.260001 Z M772.793431,481.185422 L772.793431,460.327644 C772.793431,456.682508 769.853432,453.749399 766.217432,453.749399 L734.129441,453.749399 L734.129441,481.185422 C734.129441,484.807557 737.07044,487.757667 740.708439,487.757667 L766.217432,487.757667 C769.853432,487.757667 772.793431,484.807557 772.793431,481.185422 Z M656.895461,413.150885 L656.895461,299.938663 C656.895461,296.313528 653.955461,293.366418 650.323462,293.366418 L627.770468,293.366418 C624.132469,293.366418 621.20247,296.313528 621.20247,299.938663 L621.10047,383.396775 L641.735465,416.928026 C642.686464,418.479083 643.875464,419.72713 645.696464,419.72713 L651.824462,419.72713 C654.629461,419.72713 656.895461,416.78002 656.895461,413.150885 Z M656.895461,462.705733 L656.895461,460.327644 C656.895461,456.682508 653.955461,453.749399 650.323462,453.749399 L643.978464,453.749399 L638.261465,453.749399 C634.633466,453.749399 630.178468,451.239305 628.281468,448.16119 L536.539492,298.286602 C534.135492,295.5665 529.242494,293.366418 525.606495,293.366418 L498.810501,293.366418 C495.172502,293.366418 492.225503,296.313528 492.225503,299.938663 L492.225503,319.15638 L492.225503,320.809441 C492.225503,324.441577 495.182502,327.384687 498.810501,327.384687 L500.121501,327.384687 L510.849498,327.384687 C514.477497,327.384687 518.936496,329.87778 520.845496,332.956894 L612.584472,482.838483 C614.985471,485.561585 619.87847,487.757667 623.510469,487.757667 L650.323462,487.757667 C653.955461,487.757667 656.895461,484.807557 656.895461,481.185422 L656.895461,462.705733 Z M527.935494,481.185422 L528.027494,397.73331 L507.401499,364.196059 C506.439499,362.652002 505.2575,361.403955 503.4405,361.403955 L497.302502,361.403955 C494.503503,361.403955 492.234503,364.344065 492.234503,367.983201 L492.234503,481.185422 C492.234503,484.807557 495.182502,487.757667 498.810501,487.757667 L521.355496,487.757667 C524.991495,487.757667 527.935494,484.807557 527.935494,481.185422 Z M463.496511,481.178421 L463.496511,460.327644 C463.496511,456.682508 460.545511,453.749399 456.910512,453.749399 L414.799523,453.749399 L414.799523,358.30184 L382.708531,358.30184 C379.086532,358.30184 376.132533,361.248949 376.132533,364.875085 L376.132533,453.749399 L334.021544,453.749399 C330.386545,453.749399 327.451546,456.682508 327.451546,460.327644 L327.451546,481.185422 C327.451546,484.807557 330.386545,487.757667 334.021544,487.757667 L456.910512,487.757667 C460.545511,487.757667 463.496511,484.807557 463.496511,481.178421 Z M294.441554,327.450689 L327.263546,327.450689 C330.894545,327.450689 334.897544,324.698587 336.188543,321.30346 L344.552541,299.389643 C346.096541,296.10352 344.400541,293.429421 340.767542,293.429421 L314.552549,293.429421 C310.91355,293.429421 306.781551,296.122521 305.299551,299.448645 L294.441554,327.450689 Z M273.21656,481.613438 L321.313547,358.364842 L288.970556,358.364842 C285.347556,358.364842 281.367557,361.129945 280.104558,364.532072 L248.002566,446.570131 L213.930575,358.364842 L181.462583,358.364842 C177.822584,358.364842 175.960585,361.110944 177.290584,364.48907 L223.344572,481.613438 C224.653572,484.998564 228.660571,487.751667 232.29457,487.757667 L264.269562,487.757667 C267.896561,487.751667 271.90456,484.998564 273.21656,481.613438 Z M160.054589,321.30346 C161.347588,324.698587 165.346587,327.450689 168.979586,327.450689 L201.798578,327.450689 L190.934581,299.448645 C189.463581,296.122521 185.336582,293.429421 181.699583,293.429421 L155.47659,293.429421 C151.847591,293.429421 150.153591,296.10352 151.684591,299.389643 L160.054589,321.30346 Z M376.137533,299.938663 L376.137533,320.809441 C376.137533,324.441577 379.086532,327.384687 382.708531,327.384687 L414.809523,327.384687 L414.809523,299.938663 C414.809523,296.313528 411.872524,293.366418 408.233525,293.366418 L382.708531,293.366418 C379.086532,293.366418 376.137533,296.313528 376.137533,299.938663 Z" id="Combined-Shape"></path>
        </g>
    </g>
</svg>